# xmcd CD database file
#
# Track frame offsets:
#	150
#	38514
#	57968
#	83725
#	96202
#	128442
#	157894
#	185694
#	209208
#	260250
#	291352
#	312744
#
# Disc length: 4325 seconds
#
# Revision: 0
# Processed by: cddbd v1.5.2PL0 Copyright (c) Steve Scherf et al.
# Submitted via: CDex 1.70beta2
#
DISCID=a910e30c
DTITLE=Various Artist - INS and OUTS of Desire_Jazz Giants jazz classics vol.2
DYEAR=1900
DGENRE=Jazz
TTITLE0=ROUND MIDNIGHT monk and mulligan
TTITLE1=BUT NOT FOR ME ammons and spitt
TTITLE2=CHIPPIE ornette coleman
TTITLE3=FINE AND DANDY spitt powell johnson
TTITLE4=BLAME IT ON MY YOUTH artfarmer
TTITLE5=STARDUST dave brubeck quartet
TTITLE6=WILLOW WEEP FOR ME wynton kelly
TTITLE7=HOW HIGHT THE MOON tatum hampton rich
TTITLE8=JUICY FRUIT coleman hawkins
TTITLE9=ALONE TOGETHER chet baker
TTITLE10=MOOD INDIGO duke ellington
TTITLE11=I DIDN'T KNOW WHAT TIME IT WAS charlie parker
EXTD=
EXTT0=
EXTT1=
EXTT2=
EXTT3=
EXTT4=
EXTT5=
EXTT6=
EXTT7=
EXTT8=
EXTT9=
EXTT10=
EXTT11=
PLAYORDER=
